<svg width="18" height="16" viewBox="0 0 18 16" fill="none" xmlns="http://www.w3.org/2000/svg">
<path fill-rule="evenodd" clip-rule="evenodd" d="M0.000481428 4.69357C0.0274701 2.15856 2.1187 0 4.80656 0C6.45637 0 7.66994 0.786439 8.44437 1.52691C8.66 1.73308 8.84506 1.93873 9 2.12836C9.15495 1.93873 9.34 1.73308 9.55564 1.52691C10.3301 0.786439 11.5436 0 13.1935 0C15.8813 0 17.9725 2.15856 17.9995 4.69357C18.0507 9.63777 13.9254 13.0585 9.77881 15.7691C9.54914 15.9195 9.27778 16 9 16C8.72222 16 8.45086 15.9195 8.2212 15.7691C4.07418 13.0585 -0.0511751 9.63782 0.000481428 4.69357ZM9.61834 3.6331C9.50077 3.85801 9.26158 3.99999 9 3.99999C8.73844 3.99999 8.49926 3.85802 8.38168 3.63313C8.38154 3.63286 8.38125 3.63232 8.38084 3.63154C8.37999 3.62997 8.37859 3.62737 8.37664 3.62381C8.3756 3.62192 8.37441 3.61975 8.37306 3.61732C8.36528 3.60328 8.35233 3.5804 8.33423 3.54995C8.29797 3.48895 8.24134 3.3981 8.16441 3.28737C8.00978 3.06481 7.77742 2.76811 7.46886 2.47308C6.8488 1.88022 5.96564 1.33333 4.80656 1.33333C2.92891 1.33333 1.40477 2.85302 1.38496 4.70711M9.61834 3.6331C9.61849 3.63282 9.61877 3.6323 9.61917 3.63154C9.62047 3.62913 9.62306 3.62433 9.62695 3.61732C9.63473 3.60328 9.64767 3.5804 9.66578 3.54995C9.70204 3.48895 9.75867 3.3981 9.8356 3.28737C9.99023 3.06481 10.2226 2.76811 10.5311 2.47308C11.1512 1.88022 12.0344 1.33333 13.1935 1.33333C15.0711 1.33333 16.5952 2.85299 16.615 4.70705C16.6582 8.8734 13.1836 11.932 9.00061 14.6663L8.99937 14.6663C4.81599 11.932 1.3415 8.87334 1.38496 4.70711" fill="#C15C54"/>
</svg>
